<svg width="1920" height="870" viewBox="0 0 1920 870" fill="none" xmlns="http://www.w3.org/2000/svg">
<rect width="1920" height="870" fill="#F6F8FC"/>
<path d="M819 80C819 75.5817 822.582 72 827 72H1113C1117.42 72 1121 75.5817 1121 80V137C1121 141.418 1117.42 145 1113 145H827C822.582 145 819 141.418 819 137V80Z" fill="#E6EAF0"/>
<g filter="url(#filter0_d_919_528)">
<rect x="466" y="497" width="230" height="286" rx="20" fill="white"/>
</g>
<rect x="485" y="543" width="194" height="66" rx="8" fill="#E9EEF5"/>
<rect width="77" height="14" rx="7" transform="matrix(1 0 0 -1 485 689)" fill="#E9EEF5"/>
<rect width="105.877" height="14" rx="7" transform="matrix(1 0 0 -1 578.123 689)" fill="#E9EEF5"/>
<path d="M485 653C485 649.134 488.134 646 492 646H527C530.866 646 534 649.134 534 653C534 656.866 530.866 660 527 660H492C488.134 660 485 656.866 485 653Z" fill="#E9EEF5"/>
<rect x="605" y="646" width="79" height="14" rx="7" fill="#E9EEF5"/>
<rect x="548" y="646" width="43" height="14" rx="7" fill="#E9EEF5"/>
<rect x="485" y="704" width="106" height="14" rx="7" fill="#E9EEF5"/>
<g filter="url(#filter1_d_919_528)">
<rect x="724" y="497" width="230" height="286" rx="20" fill="white"/>
</g>
<rect x="743" y="543" width="194" height="66" rx="8" fill="#E9EEF5"/>
<rect width="77" height="14" rx="7" transform="matrix(1 0 0 -1 743 689)" fill="#E9EEF5"/>
<rect width="105.877" height="14" rx="7" transform="matrix(1 0 0 -1 836.123 689)" fill="#E9EEF5"/>
<path d="M743 653C743 649.134 746.134 646 750 646H785C788.866 646 792 649.134 792 653C792 656.866 788.866 660 785 660H750C746.134 660 743 656.866 743 653Z" fill="#E9EEF5"/>
<rect x="863" y="646" width="79" height="14" rx="7" fill="#E9EEF5"/>
<rect x="806" y="646" width="43" height="14" rx="7" fill="#E9EEF5"/>
<rect x="743" y="704" width="106" height="14" rx="7" fill="#E9EEF5"/>
<g filter="url(#filter2_d_919_528)">
<rect x="982" y="497" width="230" height="286" rx="20" fill="white"/>
</g>
<rect x="1001" y="543" width="194" height="66" rx="8" fill="#E9EEF5"/>
<rect width="77" height="14" rx="7" transform="matrix(1 0 0 -1 1001 689)" fill="#E9EEF5"/>
<rect width="105.877" height="14" rx="7" transform="matrix(1 0 0 -1 1094.12 689)" fill="#E9EEF5"/>
<path d="M1001 653C1001 649.134 1004.13 646 1008 646H1043C1046.87 646 1050 649.134 1050 653C1050 656.866 1046.87 660 1043 660H1008C1004.13 660 1001 656.866 1001 653Z" fill="#E9EEF5"/>
<rect x="1121" y="646" width="79" height="14" rx="7" fill="#E9EEF5"/>
<rect x="1064" y="646" width="43" height="14" rx="7" fill="#E9EEF5"/>
<rect x="1001" y="704" width="106" height="14" rx="7" fill="#E9EEF5"/>
<g filter="url(#filter3_d_919_528)">
<rect x="1240" y="497" width="230" height="286" rx="20" fill="white"/>
</g>
<rect x="1259" y="543" width="194" height="66" rx="8" fill="#E9EEF5"/>
<rect width="77" height="14" rx="7" transform="matrix(1 0 0 -1 1259 689)" fill="#E9EEF5"/>
<rect width="105.877" height="14" rx="7" transform="matrix(1 0 0 -1 1352.12 689)" fill="#E9EEF5"/>
<path d="M1259 653C1259 649.134 1262.13 646 1266 646H1301C1304.87 646 1308 649.134 1308 653C1308 656.866 1304.87 660 1301 660H1266C1262.13 660 1259 656.866 1259 653Z" fill="#E9EEF5"/>
<rect x="1379" y="646" width="79" height="14" rx="7" fill="#E9EEF5"/>
<rect x="1322" y="646" width="43" height="14" rx="7" fill="#E9EEF5"/>
<rect x="1259" y="704" width="106" height="14" rx="7" fill="#E9EEF5"/>
<g filter="url(#filter4_d_919_528)">
<rect x="208" y="174" width="230" height="286" rx="20" fill="white"/>
</g>
<rect x="227" y="220" width="194" height="66" rx="8" fill="#E9EEF5"/>
<rect width="77" height="14" rx="7" transform="matrix(1 0 0 -1 227 366)" fill="#E9EEF5"/>
<rect width="105.877" height="14" rx="7" transform="matrix(1 0 0 -1 320.123 366)" fill="#E9EEF5"/>
<path d="M227 330C227 326.134 230.134 323 234 323H269C272.866 323 276 326.134 276 330C276 333.866 272.866 337 269 337H234C230.134 337 227 333.866 227 330Z" fill="#E9EEF5"/>
<rect x="347" y="323" width="79" height="14" rx="7" fill="#E9EEF5"/>
<rect x="290" y="323" width="43" height="14" rx="7" fill="#E9EEF5"/>
<rect x="227" y="381" width="106" height="14" rx="7" fill="#E9EEF5"/>
<g filter="url(#filter5_d_919_528)">
<rect x="466" y="174" width="230" height="286" rx="20" fill="white"/>
</g>
<rect x="485" y="220" width="194" height="66" rx="8" fill="#E9EEF5"/>
<rect width="77" height="14" rx="7" transform="matrix(1 0 0 -1 485 366)" fill="#E9EEF5"/>
<rect width="105.877" height="14" rx="7" transform="matrix(1 0 0 -1 578.123 366)" fill="#E9EEF5"/>
<path d="M485 330C485 326.134 488.134 323 492 323H527C530.866 323 534 326.134 534 330C534 333.866 530.866 337 527 337H492C488.134 337 485 333.866 485 330Z" fill="#E9EEF5"/>
<rect x="605" y="323" width="79" height="14" rx="7" fill="#E9EEF5"/>
<rect x="548" y="323" width="43" height="14" rx="7" fill="#E9EEF5"/>
<rect x="485" y="381" width="106" height="14" rx="7" fill="#E9EEF5"/>
<g filter="url(#filter6_d_919_528)">
<rect x="724" y="174" width="230" height="286" rx="20" fill="white"/>
</g>
<rect x="743" y="220" width="194" height="66" rx="8" fill="#E9EEF5"/>
<rect width="77" height="14" rx="7" transform="matrix(1 0 0 -1 743 366)" fill="#E9EEF5"/>
<rect width="105.877" height="14" rx="7" transform="matrix(1 0 0 -1 836.123 366)" fill="#E9EEF5"/>
<path d="M743 330C743 326.134 746.134 323 750 323H785C788.866 323 792 326.134 792 330C792 333.866 788.866 337 785 337H750C746.134 337 743 333.866 743 330Z" fill="#E9EEF5"/>
<rect x="863" y="323" width="79" height="14" rx="7" fill="#E9EEF5"/>
<rect x="806" y="323" width="43" height="14" rx="7" fill="#E9EEF5"/>
<rect x="743" y="381" width="106" height="14" rx="7" fill="#E9EEF5"/>
<g filter="url(#filter7_d_919_528)">
<rect x="982" y="174" width="230" height="286" rx="20" fill="white"/>
</g>
<rect x="1001" y="220" width="194" height="66" rx="8" fill="#E9EEF5"/>
<rect width="77" height="14" rx="7" transform="matrix(1 0 0 -1 1001 366)" fill="#E9EEF5"/>
<rect width="105.877" height="14" rx="7" transform="matrix(1 0 0 -1 1094.12 366)" fill="#E9EEF5"/>
<path d="M1001 330C1001 326.134 1004.13 323 1008 323H1043C1046.87 323 1050 326.134 1050 330C1050 333.866 1046.87 337 1043 337H1008C1004.13 337 1001 333.866 1001 330Z" fill="#E9EEF5"/>
<rect x="1121" y="323" width="79" height="14" rx="7" fill="#E9EEF5"/>
<rect x="1064" y="323" width="43" height="14" rx="7" fill="#E9EEF5"/>
<rect x="1001" y="381" width="106" height="14" rx="7" fill="#E9EEF5"/>
<g filter="url(#filter8_d_919_528)">
<rect x="1240" y="174" width="230" height="286" rx="20" fill="white"/>
</g>
<rect x="1259" y="220" width="194" height="66" rx="8" fill="#E9EEF5"/>
<rect width="77" height="14" rx="7" transform="matrix(1 0 0 -1 1259 366)" fill="#E9EEF5"/>
<rect width="105.877" height="14" rx="7" transform="matrix(1 0 0 -1 1352.12 366)" fill="#E9EEF5"/>
<path d="M1259 330C1259 326.134 1262.13 323 1266 323H1301C1304.87 323 1308 326.134 1308 330C1308 333.866 1304.87 337 1301 337H1266C1262.13 337 1259 333.866 1259 330Z" fill="#E9EEF5"/>
<rect x="1379" y="323" width="79" height="14" rx="7" fill="#E9EEF5"/>
<rect x="1322" y="323" width="43" height="14" rx="7" fill="#E9EEF5"/>
<rect x="1259" y="381" width="106" height="14" rx="7" fill="#E9EEF5"/>
<g filter="url(#filter9_d_919_528)">
<rect x="1498" y="174" width="230" height="286" rx="20" fill="white"/>
</g>
<rect x="1517" y="220" width="194" height="66" rx="8" fill="#E9EEF5"/>
<rect width="77" height="14" rx="7" transform="matrix(1 0 0 -1 1517 366)" fill="#E9EEF5"/>
<rect width="105.877" height="14" rx="7" transform="matrix(1 0 0 -1 1610.12 366)" fill="#E9EEF5"/>
<path d="M1517 330C1517 326.134 1520.13 323 1524 323H1559C1562.87 323 1566 326.134 1566 330C1566 333.866 1562.87 337 1559 337H1524C1520.13 337 1517 333.866 1517 330Z" fill="#E9EEF5"/>
<rect x="1637" y="323" width="79" height="14" rx="7" fill="#E9EEF5"/>
<rect x="1580" y="323" width="43" height="14" rx="7" fill="#E9EEF5"/>
<rect x="1517" y="381" width="106" height="14" rx="7" fill="#E9EEF5"/>
<defs>
<filter id="filter0_d_919_528" x="450" y="485" width="262" height="318" filterUnits="userSpaceOnUse" color-interpolation-filters="sRGB">
<feFlood flood-opacity="0" result="BackgroundImageFix"/>
<feColorMatrix in="SourceAlpha" type="matrix" values="0 0 0 0 0 0 0 0 0 0 0 0 0 0 0 0 0 0 127 0" result="hardAlpha"/>
<feOffset dy="4"/>
<feGaussianBlur stdDeviation="8"/>
<feComposite in2="hardAlpha" operator="out"/>
<feColorMatrix type="matrix" values="0 0 0 0 0.211765 0 0 0 0 0.486275 0 0 0 0 0.756863 0 0 0 0.3 0"/>
<feBlend mode="normal" in2="BackgroundImageFix" result="effect1_dropShadow_919_528"/>
<feBlend mode="normal" in="SourceGraphic" in2="effect1_dropShadow_919_528" result="shape"/>
</filter>
<filter id="filter1_d_919_528" x="708" y="485" width="262" height="318" filterUnits="userSpaceOnUse" color-interpolation-filters="sRGB">
<feFlood flood-opacity="0" result="BackgroundImageFix"/>
<feColorMatrix in="SourceAlpha" type="matrix" values="0 0 0 0 0 0 0 0 0 0 0 0 0 0 0 0 0 0 127 0" result="hardAlpha"/>
<feOffset dy="4"/>
<feGaussianBlur stdDeviation="8"/>
<feComposite in2="hardAlpha" operator="out"/>
<feColorMatrix type="matrix" values="0 0 0 0 0.211765 0 0 0 0 0.486275 0 0 0 0 0.756863 0 0 0 0.3 0"/>
<feBlend mode="normal" in2="BackgroundImageFix" result="effect1_dropShadow_919_528"/>
<feBlend mode="normal" in="SourceGraphic" in2="effect1_dropShadow_919_528" result="shape"/>
</filter>
<filter id="filter2_d_919_528" x="966" y="485" width="262" height="318" filterUnits="userSpaceOnUse" color-interpolation-filters="sRGB">
<feFlood flood-opacity="0" result="BackgroundImageFix"/>
<feColorMatrix in="SourceAlpha" type="matrix" values="0 0 0 0 0 0 0 0 0 0 0 0 0 0 0 0 0 0 127 0" result="hardAlpha"/>
<feOffset dy="4"/>
<feGaussianBlur stdDeviation="8"/>
<feComposite in2="hardAlpha" operator="out"/>
<feColorMatrix type="matrix" values="0 0 0 0 0.211765 0 0 0 0 0.486275 0 0 0 0 0.756863 0 0 0 0.3 0"/>
<feBlend mode="normal" in2="BackgroundImageFix" result="effect1_dropShadow_919_528"/>
<feBlend mode="normal" in="SourceGraphic" in2="effect1_dropShadow_919_528" result="shape"/>
</filter>
<filter id="filter3_d_919_528" x="1224" y="485" width="262" height="318" filterUnits="userSpaceOnUse" color-interpolation-filters="sRGB">
<feFlood flood-opacity="0" result="BackgroundImageFix"/>
<feColorMatrix in="SourceAlpha" type="matrix" values="0 0 0 0 0 0 0 0 0 0 0 0 0 0 0 0 0 0 127 0" result="hardAlpha"/>
<feOffset dy="4"/>
<feGaussianBlur stdDeviation="8"/>
<feComposite in2="hardAlpha" operator="out"/>
<feColorMatrix type="matrix" values="0 0 0 0 0.211765 0 0 0 0 0.486275 0 0 0 0 0.756863 0 0 0 0.3 0"/>
<feBlend mode="normal" in2="BackgroundImageFix" result="effect1_dropShadow_919_528"/>
<feBlend mode="normal" in="SourceGraphic" in2="effect1_dropShadow_919_528" result="shape"/>
</filter>
<filter id="filter4_d_919_528" x="192" y="162" width="262" height="318" filterUnits="userSpaceOnUse" color-interpolation-filters="sRGB">
<feFlood flood-opacity="0" result="BackgroundImageFix"/>
<feColorMatrix in="SourceAlpha" type="matrix" values="0 0 0 0 0 0 0 0 0 0 0 0 0 0 0 0 0 0 127 0" result="hardAlpha"/>
<feOffset dy="4"/>
<feGaussianBlur stdDeviation="8"/>
<feComposite in2="hardAlpha" operator="out"/>
<feColorMatrix type="matrix" values="0 0 0 0 0.211765 0 0 0 0 0.486275 0 0 0 0 0.756863 0 0 0 0.3 0"/>
<feBlend mode="normal" in2="BackgroundImageFix" result="effect1_dropShadow_919_528"/>
<feBlend mode="normal" in="SourceGraphic" in2="effect1_dropShadow_919_528" result="shape"/>
</filter>
<filter id="filter5_d_919_528" x="450" y="162" width="262" height="318" filterUnits="userSpaceOnUse" color-interpolation-filters="sRGB">
<feFlood flood-opacity="0" result="BackgroundImageFix"/>
<feColorMatrix in="SourceAlpha" type="matrix" values="0 0 0 0 0 0 0 0 0 0 0 0 0 0 0 0 0 0 127 0" result="hardAlpha"/>
<feOffset dy="4"/>
<feGaussianBlur stdDeviation="8"/>
<feComposite in2="hardAlpha" operator="out"/>
<feColorMatrix type="matrix" values="0 0 0 0 0.211765 0 0 0 0 0.486275 0 0 0 0 0.756863 0 0 0 0.3 0"/>
<feBlend mode="normal" in2="BackgroundImageFix" result="effect1_dropShadow_919_528"/>
<feBlend mode="normal" in="SourceGraphic" in2="effect1_dropShadow_919_528" result="shape"/>
</filter>
<filter id="filter6_d_919_528" x="708" y="162" width="262" height="318" filterUnits="userSpaceOnUse" color-interpolation-filters="sRGB">
<feFlood flood-opacity="0" result="BackgroundImageFix"/>
<feColorMatrix in="SourceAlpha" type="matrix" values="0 0 0 0 0 0 0 0 0 0 0 0 0 0 0 0 0 0 127 0" result="hardAlpha"/>
<feOffset dy="4"/>
<feGaussianBlur stdDeviation="8"/>
<feComposite in2="hardAlpha" operator="out"/>
<feColorMatrix type="matrix" values="0 0 0 0 0.211765 0 0 0 0 0.486275 0 0 0 0 0.756863 0 0 0 0.3 0"/>
<feBlend mode="normal" in2="BackgroundImageFix" result="effect1_dropShadow_919_528"/>
<feBlend mode="normal" in="SourceGraphic" in2="effect1_dropShadow_919_528" result="shape"/>
</filter>
<filter id="filter7_d_919_528" x="966" y="162" width="262" height="318" filterUnits="userSpaceOnUse" color-interpolation-filters="sRGB">
<feFlood flood-opacity="0" result="BackgroundImageFix"/>
<feColorMatrix in="SourceAlpha" type="matrix" values="0 0 0 0 0 0 0 0 0 0 0 0 0 0 0 0 0 0 127 0" result="hardAlpha"/>
<feOffset dy="4"/>
<feGaussianBlur stdDeviation="8"/>
<feComposite in2="hardAlpha" operator="out"/>
<feColorMatrix type="matrix" values="0 0 0 0 0.211765 0 0 0 0 0.486275 0 0 0 0 0.756863 0 0 0 0.3 0"/>
<feBlend mode="normal" in2="BackgroundImageFix" result="effect1_dropShadow_919_528"/>
<feBlend mode="normal" in="SourceGraphic" in2="effect1_dropShadow_919_528" result="shape"/>
</filter>
<filter id="filter8_d_919_528" x="1224" y="162" width="262" height="318" filterUnits="userSpaceOnUse" color-interpolation-filters="sRGB">
<feFlood flood-opacity="0" result="BackgroundImageFix"/>
<feColorMatrix in="SourceAlpha" type="matrix" values="0 0 0 0 0 0 0 0 0 0 0 0 0 0 0 0 0 0 127 0" result="hardAlpha"/>
<feOffset dy="4"/>
<feGaussianBlur stdDeviation="8"/>
<feComposite in2="hardAlpha" operator="out"/>
<feColorMatrix type="matrix" values="0 0 0 0 0.211765 0 0 0 0 0.486275 0 0 0 0 0.756863 0 0 0 0.3 0"/>
<feBlend mode="normal" in2="BackgroundImageFix" result="effect1_dropShadow_919_528"/>
<feBlend mode="normal" in="SourceGraphic" in2="effect1_dropShadow_919_528" result="shape"/>
</filter>
<filter id="filter9_d_919_528" x="1482" y="162" width="262" height="318" filterUnits="userSpaceOnUse" color-interpolation-filters="sRGB">
<feFlood flood-opacity="0" result="BackgroundImageFix"/>
<feColorMatrix in="SourceAlpha" type="matrix" values="0 0 0 0 0 0 0 0 0 0 0 0 0 0 0 0 0 0 127 0" result="hardAlpha"/>
<feOffset dy="4"/>
<feGaussianBlur stdDeviation="8"/>
<feComposite in2="hardAlpha" operator="out"/>
<feColorMatrix type="matrix" values="0 0 0 0 0.211765 0 0 0 0 0.486275 0 0 0 0 0.756863 0 0 0 0.3 0"/>
<feBlend mode="normal" in2="BackgroundImageFix" result="effect1_dropShadow_919_528"/>
<feBlend mode="normal" in="SourceGraphic" in2="effect1_dropShadow_919_528" result="shape"/>
</filter>
</defs>
</svg>
