<svg width="1920" height="870" viewBox="0 0 1920 870" fill="none" xmlns="http://www.w3.org/2000/svg">
<rect width="1920" height="870" fill="white"/>
<g filter="url(#filter0_d_1018_46)">
<rect x="584" y="164" width="360" height="554" rx="20" fill="white"/>
</g>
<rect x="614" y="549" width="140" height="24" rx="8" fill="#E9EEF5"/>
<rect x="774" y="549" width="140" height="24" rx="8" fill="#E9EEF5"/>
<rect x="614" y="586" width="100" height="24" rx="8" fill="#E9EEF5"/>
<rect x="814" y="585" width="100" height="24" rx="8" fill="#E9EEF5"/>
<rect x="739" y="585" width="50" height="24" rx="8" fill="#E9EEF5"/>
<rect x="614" y="473" width="140" height="24" rx="8" fill="#E9EEF5"/>
<rect x="774" y="473" width="140" height="24" rx="8" fill="#E9EEF5"/>
<rect x="614" y="510" width="100" height="24" rx="8" fill="#E9EEF5"/>
<rect x="814" y="509" width="100" height="24" rx="8" fill="#E9EEF5"/>
<rect x="739" y="509" width="50" height="24" rx="8" fill="#E9EEF5"/>
<rect x="614" y="415" width="175" height="43" rx="8" fill="#E9EEF5"/>
<path d="M584 184C584 172.954 592.954 164 604 164H924C935.046 164 944 172.954 944 184V375C944 386.046 935.046 395 924 395H604C592.954 395 584 386.046 584 375V184Z" fill="#E9EEF5"/>
<g filter="url(#filter1_d_1018_46)">
<rect x="195" y="164" width="360" height="554" rx="20" fill="white"/>
</g>
<rect x="225" y="549" width="140" height="24" rx="8" fill="#E9EEF5"/>
<rect x="385" y="549" width="140" height="24" rx="8" fill="#E9EEF5"/>
<rect x="225" y="586" width="100" height="24" rx="8" fill="#E9EEF5"/>
<rect x="425" y="585" width="100" height="24" rx="8" fill="#E9EEF5"/>
<rect x="350" y="585" width="50" height="24" rx="8" fill="#E9EEF5"/>
<rect x="225" y="473" width="140" height="24" rx="8" fill="#E9EEF5"/>
<rect x="385" y="473" width="140" height="24" rx="8" fill="#E9EEF5"/>
<rect x="225" y="510" width="100" height="24" rx="8" fill="#E9EEF5"/>
<rect x="425" y="509" width="100" height="24" rx="8" fill="#E9EEF5"/>
<rect x="350" y="509" width="50" height="24" rx="8" fill="#E9EEF5"/>
<rect x="225" y="415" width="175" height="43" rx="8" fill="#E9EEF5"/>
<path d="M195 184C195 172.954 203.954 164 215 164H535C546.046 164 555 172.954 555 184V375C555 386.046 546.046 395 535 395H215C203.954 395 195 386.046 195 375V184Z" fill="#E9EEF5"/>
<g filter="url(#filter2_d_1018_46)">
<rect x="975" y="164" width="360" height="554" rx="20" fill="white"/>
</g>
<rect x="1005" y="549" width="140" height="24" rx="8" fill="#E9EEF5"/>
<rect x="1165" y="549" width="140" height="24" rx="8" fill="#E9EEF5"/>
<rect x="1005" y="586" width="100" height="24" rx="8" fill="#E9EEF5"/>
<rect x="1205" y="585" width="100" height="24" rx="8" fill="#E9EEF5"/>
<rect x="1130" y="585" width="50" height="24" rx="8" fill="#E9EEF5"/>
<rect x="1005" y="473" width="140" height="24" rx="8" fill="#E9EEF5"/>
<rect x="1165" y="473" width="140" height="24" rx="8" fill="#E9EEF5"/>
<rect x="1005" y="510" width="100" height="24" rx="8" fill="#E9EEF5"/>
<rect x="1205" y="509" width="100" height="24" rx="8" fill="#E9EEF5"/>
<rect x="1130" y="509" width="50" height="24" rx="8" fill="#E9EEF5"/>
<rect x="1005" y="415" width="175" height="43" rx="8" fill="#E9EEF5"/>
<path d="M975 184C975 172.954 983.954 164 995 164H1315C1326.05 164 1335 172.954 1335 184V375C1335 386.046 1326.05 395 1315 395H995C983.954 395 975 386.046 975 375V184Z" fill="#E9EEF5"/>
<g filter="url(#filter3_d_1018_46)">
<rect x="1365" y="164" width="360" height="554" rx="20" fill="white"/>
</g>
<rect x="1395" y="549" width="140" height="24" rx="8" fill="#E9EEF5"/>
<rect x="1555" y="549" width="140" height="24" rx="8" fill="#E9EEF5"/>
<rect x="1395" y="586" width="100" height="24" rx="8" fill="#E9EEF5"/>
<rect x="1595" y="585" width="100" height="24" rx="8" fill="#E9EEF5"/>
<rect x="1520" y="585" width="50" height="24" rx="8" fill="#E9EEF5"/>
<rect x="1395" y="473" width="140" height="24" rx="8" fill="#E9EEF5"/>
<rect x="1555" y="473" width="140" height="24" rx="8" fill="#E9EEF5"/>
<rect x="1395" y="510" width="100" height="24" rx="8" fill="#E9EEF5"/>
<rect x="1595" y="509" width="100" height="24" rx="8" fill="#E9EEF5"/>
<rect x="1520" y="509" width="50" height="24" rx="8" fill="#E9EEF5"/>
<rect x="1395" y="415" width="175" height="43" rx="8" fill="#E9EEF5"/>
<path d="M1365 184C1365 172.954 1373.95 164 1385 164H1705C1716.05 164 1725 172.954 1725 184V375C1725 386.046 1716.05 395 1705 395H1385C1373.95 395 1365 386.046 1365 375V184Z" fill="#E9EEF5"/>
<rect x="733" y="57" width="454" height="73" rx="8" fill="#E6EAF0"/>
<defs>
<filter id="filter0_d_1018_46" x="568" y="150" width="392" height="586" filterUnits="userSpaceOnUse" color-interpolation-filters="sRGB">
<feFlood flood-opacity="0" result="BackgroundImageFix"/>
<feColorMatrix in="SourceAlpha" type="matrix" values="0 0 0 0 0 0 0 0 0 0 0 0 0 0 0 0 0 0 127 0" result="hardAlpha"/>
<feOffset dy="2"/>
<feGaussianBlur stdDeviation="8"/>
<feComposite in2="hardAlpha" operator="out"/>
<feColorMatrix type="matrix" values="0 0 0 0 0.211765 0 0 0 0 0.486275 0 0 0 0 0.756863 0 0 0 0.5 0"/>
<feBlend mode="normal" in2="BackgroundImageFix" result="effect1_dropShadow_1018_46"/>
<feBlend mode="normal" in="SourceGraphic" in2="effect1_dropShadow_1018_46" result="shape"/>
</filter>
<filter id="filter1_d_1018_46" x="179" y="150" width="392" height="586" filterUnits="userSpaceOnUse" color-interpolation-filters="sRGB">
<feFlood flood-opacity="0" result="BackgroundImageFix"/>
<feColorMatrix in="SourceAlpha" type="matrix" values="0 0 0 0 0 0 0 0 0 0 0 0 0 0 0 0 0 0 127 0" result="hardAlpha"/>
<feOffset dy="2"/>
<feGaussianBlur stdDeviation="8"/>
<feComposite in2="hardAlpha" operator="out"/>
<feColorMatrix type="matrix" values="0 0 0 0 0.211765 0 0 0 0 0.486275 0 0 0 0 0.756863 0 0 0 0.5 0"/>
<feBlend mode="normal" in2="BackgroundImageFix" result="effect1_dropShadow_1018_46"/>
<feBlend mode="normal" in="SourceGraphic" in2="effect1_dropShadow_1018_46" result="shape"/>
</filter>
<filter id="filter2_d_1018_46" x="959" y="150" width="392" height="586" filterUnits="userSpaceOnUse" color-interpolation-filters="sRGB">
<feFlood flood-opacity="0" result="BackgroundImageFix"/>
<feColorMatrix in="SourceAlpha" type="matrix" values="0 0 0 0 0 0 0 0 0 0 0 0 0 0 0 0 0 0 127 0" result="hardAlpha"/>
<feOffset dy="2"/>
<feGaussianBlur stdDeviation="8"/>
<feComposite in2="hardAlpha" operator="out"/>
<feColorMatrix type="matrix" values="0 0 0 0 0.211765 0 0 0 0 0.486275 0 0 0 0 0.756863 0 0 0 0.5 0"/>
<feBlend mode="normal" in2="BackgroundImageFix" result="effect1_dropShadow_1018_46"/>
<feBlend mode="normal" in="SourceGraphic" in2="effect1_dropShadow_1018_46" result="shape"/>
</filter>
<filter id="filter3_d_1018_46" x="1349" y="150" width="392" height="586" filterUnits="userSpaceOnUse" color-interpolation-filters="sRGB">
<feFlood flood-opacity="0" result="BackgroundImageFix"/>
<feColorMatrix in="SourceAlpha" type="matrix" values="0 0 0 0 0 0 0 0 0 0 0 0 0 0 0 0 0 0 127 0" result="hardAlpha"/>
<feOffset dy="2"/>
<feGaussianBlur stdDeviation="8"/>
<feComposite in2="hardAlpha" operator="out"/>
<feColorMatrix type="matrix" values="0 0 0 0 0.211765 0 0 0 0 0.486275 0 0 0 0 0.756863 0 0 0 0.5 0"/>
<feBlend mode="normal" in2="BackgroundImageFix" result="effect1_dropShadow_1018_46"/>
<feBlend mode="normal" in="SourceGraphic" in2="effect1_dropShadow_1018_46" result="shape"/>
</filter>
</defs>
</svg>
