<svg width="25" height="24" viewBox="0 0 25 24" fill="none" xmlns="http://www.w3.org/2000/svg">
<path d="M3.04206 18.1157C3.088 17.7022 3.11097 17.4955 3.17353 17.3022C3.22903 17.1308 3.30745 16.9676 3.40665 16.8172C3.51847 16.6476 3.66556 16.5005 3.95974 16.2063L17.166 3.00006C18.2706 1.89549 20.0615 1.89549 21.166 3.00006C22.2706 4.10463 22.2706 5.89549 21.166 7.00006L7.95974 20.2063C7.66556 20.5005 7.51847 20.6476 7.3489 20.7594C7.19846 20.8586 7.03531 20.937 6.86386 20.9925C6.67062 21.0551 6.46387 21.0781 6.05038 21.124L2.66602 21.5001L3.04206 18.1157Z" stroke="#7A7A7A" stroke-width="2" stroke-linecap="round" stroke-linejoin="round"/>
</svg>
