<svg width="32" height="32" viewBox="0 0 32 32" fill="none" xmlns="http://www.w3.org/2000/svg">
<path fill-rule="evenodd" clip-rule="evenodd" d="M8.35371 13.288C8.17229 13.0763 8.05529 12.8171 8.01653 12.541C7.97777 12.2648 8.01888 11.9834 8.135 11.7299C8.25111 11.4765 8.43738 11.2615 8.67178 11.1106C8.90618 10.9596 9.1789 10.8789 9.45771 10.878L22.5417 10.878C22.8205 10.8789 23.0932 10.9596 23.3276 11.1106C23.562 11.2615 23.7483 11.4765 23.8644 11.7299C23.9805 11.9834 24.0217 12.2648 23.9829 12.541C23.9441 12.8171 23.8271 13.0763 23.6457 13.288L17.5997 20.306C17.412 20.5237 17.1797 20.6983 16.9184 20.8181C16.6571 20.9379 16.3731 20.9999 16.0857 21L15.9177 21C15.6303 20.9999 15.3463 20.9379 15.085 20.8181C14.8238 20.6983 14.5914 20.5237 14.4037 20.306L8.35571 13.288L8.35371 13.288Z" fill="#448C5C"/>
</svg>
