<svg width="25" height="24" viewBox="0 0 25 24" fill="none" xmlns="http://www.w3.org/2000/svg">
<path d="M23.2627 18.2615L13.1987 23.9099C12.9849 24.0299 12.7243 24.0299 12.5105 23.9099L2.44648 18.2615C1.96789 17.9933 1.96883 17.3029 2.44648 17.0352L4.94961 15.6304L11.8224 19.4877C12.4634 19.8479 13.2468 19.8473 13.8868 19.4877L20.7596 15.6304L23.2627 17.0352C23.7413 17.3033 23.7404 17.9938 23.2627 18.2615Z" fill="#448C5C"/>
<path d="M23.2627 11.3868L20.7596 9.98193L13.8868 13.8393C13.247 14.1988 12.4632 14.1993 11.8224 13.8393L4.94961 9.98193L2.44648 11.3868C1.96883 11.6544 1.96789 12.3449 2.44648 12.613L12.5105 18.2615C12.7243 18.3815 12.9849 18.3815 13.1987 18.2615L23.2627 12.613C23.7404 12.3454 23.7413 11.6549 23.2627 11.3868ZM6.63898 13.5383C6.25039 13.5383 5.93586 13.2233 5.93586 12.8352C5.93586 12.4466 6.25039 12.1321 6.63898 12.1321C7.02711 12.1321 7.34211 12.4466 7.34211 12.8352C7.34211 13.2233 7.02711 13.5383 6.63898 13.5383ZM9.63289 15.2797C9.2443 15.2797 8.92977 14.9647 8.92977 14.5766C8.92977 14.188 9.2443 13.8735 9.63289 13.8735C10.021 13.8735 10.336 14.188 10.336 14.5766C10.336 14.9647 10.021 15.2797 9.63289 15.2797ZM12.8546 16.911C12.4665 16.911 12.1515 16.5965 12.1515 16.2079C12.1515 15.8197 12.4665 15.5047 12.8546 15.5047C13.2427 15.5047 13.5577 15.8197 13.5577 16.2079C13.5577 16.5965 13.2427 16.911 12.8546 16.911ZM16.0763 15.2797C15.6882 15.2797 15.3732 14.9647 15.3732 14.5766C15.3732 14.188 15.6882 13.8735 16.0763 13.8735C16.4649 13.8735 16.7795 14.188 16.7795 14.5766C16.7795 14.9647 16.4649 15.2797 16.0763 15.2797ZM19.0702 13.5383C18.6821 13.5383 18.3671 13.2233 18.3671 12.8352C18.3671 12.4466 18.6821 12.1321 19.0702 12.1321C19.4588 12.1321 19.7734 12.4466 19.7734 12.8352C19.7734 13.2233 19.4588 13.5383 19.0702 13.5383Z" fill="#448C5C"/>
<path d="M23.2627 6.96469L13.1987 12.6131C12.9849 12.7331 12.7243 12.7331 12.5105 12.6131L2.44648 6.96469C1.96789 6.69656 1.96883 6.00609 2.44648 5.73844L12.5105 0.09C12.7243 -0.03 12.9849 -0.03 13.1987 0.09L23.2627 5.73844C23.7413 6.00656 23.7404 6.69703 23.2627 6.96469Z" fill="#448C5C"/>
</svg>
