<svg width="33" height="32" viewBox="0 0 33 32" fill="none" xmlns="http://www.w3.org/2000/svg">
<path fill-rule="evenodd" clip-rule="evenodd" d="M7.44238 6.87068C7.44238 6.46293 7.60436 6.07188 7.89268 5.78355C8.18101 5.49523 8.57206 5.33325 8.97981 5.33325L24.3541 5.33325C24.7618 5.33325 25.1529 5.49523 25.4412 5.78355C25.7295 6.07188 25.8915 6.46293 25.8915 6.87068V9.00873C25.8914 9.55235 25.6753 10.0737 25.2909 10.458L19.7418 16.0071V23.6163C19.7418 23.8085 19.6927 23.9976 19.5991 24.1654C19.5056 24.3333 19.3706 24.4745 19.2071 24.5755C19.0436 24.6766 18.857 24.7342 18.665 24.7428C18.473 24.7514 18.282 24.7108 18.1101 24.6249L14.3003 22.7205C14.0875 22.6141 13.9085 22.4506 13.7835 22.2482C13.6584 22.0458 13.5921 21.8126 13.5921 21.5746L13.5921 16.0071L8.043 10.458C7.65855 10.0737 7.4425 9.55235 7.44238 9.00873L7.44238 6.87068Z" fill="#448C5C"/>
</svg>
