<svg width="25" height="24" viewBox="0 0 25 24" fill="none" xmlns="http://www.w3.org/2000/svg">
<path d="M16.166 6V5.2C16.166 4.0799 16.166 3.51984 15.948 3.09202C15.7563 2.71569 15.4503 2.40973 15.074 2.21799C14.6462 2 14.0861 2 12.966 2H11.366C10.2459 2 9.68586 2 9.25803 2.21799C8.88171 2.40973 8.57575 2.71569 8.384 3.09202C8.16602 3.51984 8.16602 4.0799 8.16602 5.2V6M10.166 11.5V16.5M14.166 11.5V16.5M3.16602 6H21.166M19.166 6V17.2C19.166 18.8802 19.166 19.7202 18.839 20.362C18.5514 20.9265 18.0925 21.3854 17.528 21.673C16.8863 22 16.0462 22 14.366 22H9.96602C8.28586 22 7.44578 22 6.80404 21.673C6.23956 21.3854 5.78062 20.9265 5.493 20.362C5.16602 19.7202 5.16602 18.8802 5.16602 17.2V6" stroke="#DE3131" stroke-width="2" stroke-linecap="round" stroke-linejoin="round"/>
</svg>
