<svg width="479" height="98" viewBox="0 0 479 98" fill="none" xmlns="http://www.w3.org/2000/svg">
<path d="M170.686 24.762L158.852 71.549H146.774L137.807 38.365L128.84 71.549H116.762L104.928 24.762H114.383L122.862 60.142L132.134 24.762H143.419L152.752 60.142L161.17 24.762H170.686ZM185.988 56.421C186.72 61.5857 189.933 64.168 195.626 64.168C197.171 64.168 198.676 63.9647 200.14 63.558C201.645 63.1513 203.332 62.5007 205.203 61.606L207.704 68.926C205.63 70.0647 203.556 70.8577 201.482 71.305C199.449 71.793 197.09 72.037 194.406 72.037C190.502 72.037 187.167 71.2847 184.402 69.78C181.637 68.2347 179.542 66.0997 178.119 63.375C176.696 60.6097 175.984 57.4173 175.984 53.798C175.984 49.9753 176.716 46.7017 178.18 43.977C179.644 41.2523 181.637 39.1987 184.158 37.816C186.679 36.3927 189.485 35.681 192.576 35.681C197.497 35.681 201.34 37.1247 204.105 40.012C206.911 42.8993 208.314 47.1287 208.314 52.7V56.421H185.988ZM192.576 43.55C190.868 43.55 189.465 43.9973 188.367 44.892C187.31 45.7867 186.578 47.2507 186.171 49.284H198.493C198.29 47.2913 197.7 45.8477 196.724 44.953C195.748 44.0177 194.365 43.55 192.576 43.55ZM225.12 71.793C218.329 71.793 214.933 68.8243 214.933 62.887V19.394H224.327V59.593C224.327 61.057 224.551 62.0737 224.998 62.643C225.486 63.1717 226.34 63.436 227.56 63.436C228.821 63.436 229.98 63.2733 231.037 62.948V71.061C228.679 71.549 226.706 71.793 225.12 71.793ZM269.483 19.394V71H260.089V68.56C257.039 70.878 253.908 72.037 250.695 72.037C247.645 72.037 244.941 71.366 242.582 70.024C240.223 68.6413 238.373 66.5877 237.031 63.863C235.689 61.1383 235.018 57.8037 235.018 53.859C235.018 49.9143 235.689 46.5797 237.031 43.855C238.373 41.1303 240.223 39.097 242.582 37.755C244.941 36.3723 247.645 35.681 250.695 35.681C253.948 35.681 257.08 36.8603 260.089 39.219V19.394H269.483ZM252.586 63.68C255.026 63.68 257.527 62.7447 260.089 60.874V46.844C257.568 45.014 255.067 44.099 252.586 44.099C250.024 44.099 248.092 44.9327 246.791 46.6C245.49 48.2673 244.839 50.687 244.839 53.859C244.839 57.0717 245.49 59.5117 246.791 61.179C248.092 62.8463 250.024 63.68 252.586 63.68ZM297.402 24.762C308.748 24.762 314.421 29.764 314.421 39.768C314.421 44.648 312.998 48.369 310.151 50.931C307.304 53.4523 303.055 54.713 297.402 54.713H289.045V71H279.346V24.762H297.402ZM304.6 39.768C304.6 37.4093 304.01 35.7013 302.831 34.644C301.652 33.546 299.842 32.997 297.402 32.997H289.045V46.417H297.402C299.801 46.417 301.591 45.8883 302.77 44.831C303.949 43.733 304.559 42.0453 304.6 39.768ZM330.679 71.793C323.888 71.793 320.492 68.8243 320.492 62.887V19.394H329.886V59.593C329.886 61.057 330.11 62.0737 330.557 62.643C331.045 63.1717 331.899 63.436 333.119 63.436C334.38 63.436 335.539 63.2733 336.596 62.948V71.061C334.237 71.549 332.265 71.793 330.679 71.793ZM355.4 36.657C359.67 36.657 362.903 37.267 365.099 38.487C367.295 39.6663 368.759 41.2523 369.491 43.245C370.223 45.2377 370.589 47.7793 370.589 50.87V71H361.195V68.072C359.731 69.414 358.287 70.3697 356.864 70.939C355.481 71.5083 353.936 71.793 352.228 71.793C348.486 71.793 345.518 70.7763 343.322 68.743C341.126 66.669 340.028 63.8223 340.028 60.203C340.028 56.5023 341.146 53.6557 343.383 51.663C345.66 49.6703 348.791 48.674 352.777 48.674C355.989 48.674 358.795 49.284 361.195 50.504C361.154 49.162 360.971 48.1047 360.646 47.332C360.32 46.5187 359.67 45.9087 358.694 45.502C357.758 45.0547 356.355 44.831 354.485 44.831H348.141V36.657H355.4ZM354.119 64.412C356.396 64.412 358.755 63.3953 361.195 61.362V57.031C359.08 56.0143 356.986 55.506 354.912 55.506C353.285 55.506 351.984 55.872 351.008 56.604C350.032 57.336 349.544 58.495 349.544 60.081C349.544 62.9683 351.069 64.412 354.119 64.412ZM398.324 35.925C402.798 35.925 406.132 37.084 408.328 39.402C410.565 41.6793 411.683 45.3393 411.683 50.382V71H402.289V50.382C402.289 48.3487 401.842 46.844 400.947 45.868C400.053 44.8513 398.507 44.343 396.311 44.343C393.709 44.343 391.106 45.4207 388.503 47.576V71H379.109V36.657H388.503V39.646C391.513 37.1653 394.786 35.925 398.324 35.925ZM428.38 56.421C429.112 61.5857 432.324 64.168 438.018 64.168C439.563 64.168 441.068 63.9647 442.532 63.558C444.036 63.1513 445.724 62.5007 447.595 61.606L450.096 68.926C448.022 70.0647 445.948 70.8577 443.874 71.305C441.84 71.793 439.482 72.037 436.798 72.037C432.894 72.037 429.559 71.2847 426.794 69.78C424.028 68.2347 421.934 66.0997 420.511 63.375C419.087 60.6097 418.376 57.4173 418.376 53.798C418.376 49.9753 419.108 46.7017 420.572 43.977C422.036 41.2523 424.028 39.1987 426.55 37.816C429.071 36.3927 431.877 35.681 434.968 35.681C439.888 35.681 443.731 37.1247 446.497 40.012C449.303 42.8993 450.706 47.1287 450.706 52.7V56.421H428.38ZM434.968 43.55C433.26 43.55 431.857 43.9973 430.759 44.892C429.701 45.7867 428.969 47.2507 428.563 49.284H440.885C440.681 47.2913 440.092 45.8477 439.116 44.953C438.14 44.0177 436.757 43.55 434.968 43.55ZM468.732 46.051V59.593C468.732 61.0163 468.956 62.0127 469.403 62.582C469.891 63.1513 470.745 63.436 471.965 63.436C473.266 63.436 474.507 63.2733 475.686 62.948V71C473.327 71.5287 471.274 71.793 469.525 71.793C466.028 71.793 463.445 71.0407 461.778 69.536C460.151 68.0313 459.338 65.7947 459.338 62.826V46.051H454.702V37.694H459.338V26.104H468.732V37.694H476.54V46.051H468.732Z" fill="white"/>
<path d="M47.4823 94.9645C73.706 94.9645 94.9645 73.706 94.9645 47.4823C94.9645 21.2585 73.706 0 47.4823 0C21.2585 0 0 21.2585 0 47.4823C0 73.706 21.2585 94.9645 47.4823 94.9645Z" fill="white"/>
<g filter="url(#filter0_d_20_2)">
<path d="M52.4864 51.319L69.3074 30.5588L65.1554 27.223L48.1924 48.1961L52.9477 46.7056L52.4864 51.319ZM28 30.0975H31.5487V33.6462H28V30.0975ZM45.7437 37.195H49.2925V40.7437H45.7437V37.195ZM49.2925 23H52.8412V26.5487H49.2925V23ZM28 64.5204H65.6167V68.0691H28V64.5204ZM69.1655 64.5204H72.7142V68.0691H69.1655V64.5204ZM53.0187 60.4393L58.0934 56.2873L52.3089 53.2353L52.4864 51.319L44.6791 60.9716H53.1961L53.0187 60.4393ZM33.3231 60.9716H44.6791L40.5271 57.6358L48.1924 48.1961L46.7019 48.6574L42.5499 43.5827L39.4979 49.3672L32.9682 48.7284L34.8846 54.9742L29.8453 59.1263L33.3231 60.9716Z" fill="black"/>
</g>
<defs>
<filter id="filter0_d_20_2" x="24" y="23" width="52.7142" height="53.0691" filterUnits="userSpaceOnUse" color-interpolation-filters="sRGB">
<feFlood flood-opacity="0" result="BackgroundImageFix"/>
<feColorMatrix in="SourceAlpha" type="matrix" values="0 0 0 0 0 0 0 0 0 0 0 0 0 0 0 0 0 0 127 0" result="hardAlpha"/>
<feOffset dy="4"/>
<feGaussianBlur stdDeviation="2"/>
<feComposite in2="hardAlpha" operator="out"/>
<feColorMatrix type="matrix" values="0 0 0 0 0 0 0 0 0 0 0 0 0 0 0 0 0 0 0.25 0"/>
<feBlend mode="normal" in2="BackgroundImageFix" result="effect1_dropShadow_20_2"/>
<feBlend mode="normal" in="SourceGraphic" in2="effect1_dropShadow_20_2" result="shape"/>
</filter>
</defs>
</svg>
