<svg width="1918" height="870" viewBox="0 0 1918 870" fill="none" xmlns="http://www.w3.org/2000/svg">
<rect width="1920" height="870" fill="#F6F8FC"/>
<g filter="url(#filter0_d_912_201)">
<rect x="583" y="505" width="360" height="298" rx="20" fill="white"/>
</g>
<rect x="703" y="552" width="175" height="43" rx="8" fill="#E9EEF5"/>
<rect x="612" y="632" width="140" height="24" rx="8" fill="#E9EEF5"/>
<rect x="764" y="632" width="140" height="24" rx="8" fill="#E9EEF5"/>
<rect x="612" y="696" width="140" height="24" rx="8" fill="#E9EEF5"/>
<rect x="764" y="696" width="140" height="24" rx="8" fill="#E9EEF5"/>
<rect x="612" y="664" width="100" height="24" rx="8" fill="#E9EEF5"/>
<rect x="612" y="734" width="100" height="24" rx="8" fill="#E9EEF5"/>
<rect x="734" y="664" width="170" height="24" rx="8" fill="#E9EEF5"/>
<rect x="612" y="540" width="73" height="68" fill="#E9EEF5"/>
<g filter="url(#filter1_d_912_201)">
<rect x="973" y="505" width="360" height="298" rx="20" fill="white"/>
</g>
<rect x="1093" y="552" width="175" height="43" rx="8" fill="#E9EEF5"/>
<rect x="1002" y="632" width="140" height="24" rx="8" fill="#E9EEF5"/>
<rect x="1154" y="632" width="140" height="24" rx="8" fill="#E9EEF5"/>
<rect x="1002" y="696" width="140" height="24" rx="8" fill="#E9EEF5"/>
<rect x="1154" y="696" width="140" height="24" rx="8" fill="#E9EEF5"/>
<rect x="1002" y="664" width="100" height="24" rx="8" fill="#E9EEF5"/>
<rect x="1002" y="734" width="100" height="24" rx="8" fill="#E9EEF5"/>
<rect x="1124" y="664" width="170" height="24" rx="8" fill="#E9EEF5"/>
<rect x="1002" y="540" width="73" height="68" fill="#E9EEF5"/>
<g filter="url(#filter2_d_912_201)">
<rect x="583" y="167" width="360" height="298" rx="20" fill="white"/>
</g>
<rect x="703" y="214" width="175" height="43" rx="8" fill="#E9EEF5"/>
<rect x="612" y="294" width="140" height="24" rx="8" fill="#E9EEF5"/>
<rect x="764" y="294" width="140" height="24" rx="8" fill="#E9EEF5"/>
<rect x="612" y="358" width="140" height="24" rx="8" fill="#E9EEF5"/>
<rect x="764" y="358" width="140" height="24" rx="8" fill="#E9EEF5"/>
<rect x="612" y="326" width="100" height="24" rx="8" fill="#E9EEF5"/>
<rect x="612" y="396" width="100" height="24" rx="8" fill="#E9EEF5"/>
<rect x="734" y="326" width="170" height="24" rx="8" fill="#E9EEF5"/>
<rect x="612" y="202" width="73" height="68" fill="#E9EEF5"/>
<g filter="url(#filter3_d_912_201)">
<rect x="973" y="167" width="360" height="298" rx="20" fill="white"/>
</g>
<rect x="1093" y="214" width="175" height="43" rx="8" fill="#E9EEF5"/>
<rect x="1002" y="294" width="140" height="24" rx="8" fill="#E9EEF5"/>
<rect x="1154" y="294" width="140" height="24" rx="8" fill="#E9EEF5"/>
<rect x="1002" y="358" width="140" height="24" rx="8" fill="#E9EEF5"/>
<rect x="1154" y="358" width="140" height="24" rx="8" fill="#E9EEF5"/>
<rect x="1002" y="326" width="100" height="24" rx="8" fill="#E9EEF5"/>
<rect x="1002" y="396" width="100" height="24" rx="8" fill="#E9EEF5"/>
<rect x="1124" y="326" width="170" height="24" rx="8" fill="#E9EEF5"/>
<rect x="1002" y="202" width="73" height="68" fill="#E9EEF5"/>
<g filter="url(#filter4_d_912_201)">
<rect x="1363" y="167" width="360" height="298" rx="20" fill="white"/>
</g>
<rect x="1483" y="214" width="175" height="43" rx="8" fill="#E9EEF5"/>
<rect x="1392" y="294" width="140" height="24" rx="8" fill="#E9EEF5"/>
<rect x="1544" y="294" width="140" height="24" rx="8" fill="#E9EEF5"/>
<rect x="1392" y="358" width="140" height="24" rx="8" fill="#E9EEF5"/>
<rect x="1544" y="358" width="140" height="24" rx="8" fill="#E9EEF5"/>
<rect x="1392" y="326" width="100" height="24" rx="8" fill="#E9EEF5"/>
<rect x="1392" y="396" width="100" height="24" rx="8" fill="#E9EEF5"/>
<rect x="1514" y="326" width="170" height="24" rx="8" fill="#E9EEF5"/>
<rect x="1392" y="202" width="73" height="68" fill="#E9EEF5"/>
<g filter="url(#filter5_d_912_201)">
<rect x="193" y="167" width="360" height="298" rx="20" fill="white"/>
</g>
<rect x="313" y="214" width="175" height="43" rx="8" fill="#E9EEF5"/>
<rect x="222" y="294" width="140" height="24" rx="8" fill="#E9EEF5"/>
<rect x="374" y="294" width="140" height="24" rx="8" fill="#E9EEF5"/>
<rect x="222" y="358" width="140" height="24" rx="8" fill="#E9EEF5"/>
<rect x="374" y="358" width="140" height="24" rx="8" fill="#E9EEF5"/>
<rect x="222" y="326" width="100" height="24" rx="8" fill="#E9EEF5"/>
<rect x="222" y="396" width="100" height="24" rx="8" fill="#E9EEF5"/>
<rect x="344" y="326" width="170" height="24" rx="8" fill="#E9EEF5"/>
<rect x="222" y="202" width="73" height="68" fill="#E9EEF5"/>
<rect x="806" y="54" width="302" height="73" rx="8" fill="#E6EAF0"/>
<defs>
<filter id="filter0_d_912_201" x="567" y="493" width="392" height="330" filterUnits="userSpaceOnUse" color-interpolation-filters="sRGB">
<feFlood flood-opacity="0" result="BackgroundImageFix"/>
<feColorMatrix in="SourceAlpha" type="matrix" values="0 0 0 0 0 0 0 0 0 0 0 0 0 0 0 0 0 0 127 0" result="hardAlpha"/>
<feOffset dy="4"/>
<feGaussianBlur stdDeviation="8"/>
<feComposite in2="hardAlpha" operator="out"/>
<feColorMatrix type="matrix" values="0 0 0 0 0.211765 0 0 0 0 0.486275 0 0 0 0 0.756863 0 0 0 0.3 0"/>
<feBlend mode="normal" in2="BackgroundImageFix" result="effect1_dropShadow_912_201"/>
<feBlend mode="normal" in="SourceGraphic" in2="effect1_dropShadow_912_201" result="shape"/>
</filter>
<filter id="filter1_d_912_201" x="957" y="493" width="392" height="330" filterUnits="userSpaceOnUse" color-interpolation-filters="sRGB">
<feFlood flood-opacity="0" result="BackgroundImageFix"/>
<feColorMatrix in="SourceAlpha" type="matrix" values="0 0 0 0 0 0 0 0 0 0 0 0 0 0 0 0 0 0 127 0" result="hardAlpha"/>
<feOffset dy="4"/>
<feGaussianBlur stdDeviation="8"/>
<feComposite in2="hardAlpha" operator="out"/>
<feColorMatrix type="matrix" values="0 0 0 0 0.211765 0 0 0 0 0.486275 0 0 0 0 0.756863 0 0 0 0.3 0"/>
<feBlend mode="normal" in2="BackgroundImageFix" result="effect1_dropShadow_912_201"/>
<feBlend mode="normal" in="SourceGraphic" in2="effect1_dropShadow_912_201" result="shape"/>
</filter>
<filter id="filter2_d_912_201" x="567" y="155" width="392" height="330" filterUnits="userSpaceOnUse" color-interpolation-filters="sRGB">
<feFlood flood-opacity="0" result="BackgroundImageFix"/>
<feColorMatrix in="SourceAlpha" type="matrix" values="0 0 0 0 0 0 0 0 0 0 0 0 0 0 0 0 0 0 127 0" result="hardAlpha"/>
<feOffset dy="4"/>
<feGaussianBlur stdDeviation="8"/>
<feComposite in2="hardAlpha" operator="out"/>
<feColorMatrix type="matrix" values="0 0 0 0 0.211765 0 0 0 0 0.486275 0 0 0 0 0.756863 0 0 0 0.3 0"/>
<feBlend mode="normal" in2="BackgroundImageFix" result="effect1_dropShadow_912_201"/>
<feBlend mode="normal" in="SourceGraphic" in2="effect1_dropShadow_912_201" result="shape"/>
</filter>
<filter id="filter3_d_912_201" x="957" y="155" width="392" height="330" filterUnits="userSpaceOnUse" color-interpolation-filters="sRGB">
<feFlood flood-opacity="0" result="BackgroundImageFix"/>
<feColorMatrix in="SourceAlpha" type="matrix" values="0 0 0 0 0 0 0 0 0 0 0 0 0 0 0 0 0 0 127 0" result="hardAlpha"/>
<feOffset dy="4"/>
<feGaussianBlur stdDeviation="8"/>
<feComposite in2="hardAlpha" operator="out"/>
<feColorMatrix type="matrix" values="0 0 0 0 0.211765 0 0 0 0 0.486275 0 0 0 0 0.756863 0 0 0 0.3 0"/>
<feBlend mode="normal" in2="BackgroundImageFix" result="effect1_dropShadow_912_201"/>
<feBlend mode="normal" in="SourceGraphic" in2="effect1_dropShadow_912_201" result="shape"/>
</filter>
<filter id="filter4_d_912_201" x="1347" y="155" width="392" height="330" filterUnits="userSpaceOnUse" color-interpolation-filters="sRGB">
<feFlood flood-opacity="0" result="BackgroundImageFix"/>
<feColorMatrix in="SourceAlpha" type="matrix" values="0 0 0 0 0 0 0 0 0 0 0 0 0 0 0 0 0 0 127 0" result="hardAlpha"/>
<feOffset dy="4"/>
<feGaussianBlur stdDeviation="8"/>
<feComposite in2="hardAlpha" operator="out"/>
<feColorMatrix type="matrix" values="0 0 0 0 0.211765 0 0 0 0 0.486275 0 0 0 0 0.756863 0 0 0 0.3 0"/>
<feBlend mode="normal" in2="BackgroundImageFix" result="effect1_dropShadow_912_201"/>
<feBlend mode="normal" in="SourceGraphic" in2="effect1_dropShadow_912_201" result="shape"/>
</filter>
<filter id="filter5_d_912_201" x="177" y="155" width="392" height="330" filterUnits="userSpaceOnUse" color-interpolation-filters="sRGB">
<feFlood flood-opacity="0" result="BackgroundImageFix"/>
<feColorMatrix in="SourceAlpha" type="matrix" values="0 0 0 0 0 0 0 0 0 0 0 0 0 0 0 0 0 0 127 0" result="hardAlpha"/>
<feOffset dy="4"/>
<feGaussianBlur stdDeviation="8"/>
<feComposite in2="hardAlpha" operator="out"/>
<feColorMatrix type="matrix" values="0 0 0 0 0.211765 0 0 0 0 0.486275 0 0 0 0 0.756863 0 0 0 0.3 0"/>
<feBlend mode="normal" in2="BackgroundImageFix" result="effect1_dropShadow_912_201"/>
<feBlend mode="normal" in="SourceGraphic" in2="effect1_dropShadow_912_201" result="shape"/>
</filter>
</defs>
</svg>
