<svg width="18" height="18" viewBox="0 0 18 18" fill="none" xmlns="http://www.w3.org/2000/svg">
<g id="icon-callender" clip-path="url(#clip0_1_2649)">
<g id="Group">
<g id="Group_2">
<path id="Vector" d="M14.9283 1.94979H14.3861V1.35814C14.3861 0.608939 13.7949 0 13.0674 0C12.3395 0 11.7488 0.608939 11.7488 1.35814V1.9493H10.3956V1.35814C10.3956 0.608939 9.80445 0 9.07698 0C8.34952 0 7.75836 0.608939 7.75836 1.35814V1.9493H6.40516V1.35814C6.40516 0.608939 5.814 0 5.08653 0C4.35906 0 3.7679 0.608939 3.7679 1.35814V1.9493H3.0755C1.91837 1.9493 0.976562 2.8911 0.976562 4.04823V15.9011C0.976562 17.0582 1.91837 18 3.0755 18H14.9283C16.086 18 17.0273 17.0582 17.0273 15.9011V4.04823C17.0273 2.8916 16.0855 1.94979 14.9283 1.94979ZM12.4896 1.35814C12.4896 1.01786 12.7489 0.740802 13.0674 0.740802C13.3865 0.740802 13.6453 1.01786 13.6453 1.35814V3.77611C13.6453 4.11639 13.3865 4.39345 13.0674 4.39345C12.7489 4.39345 12.4896 4.11639 12.4896 3.77611V1.35814ZM8.49916 1.35814C8.49916 1.01786 8.75844 0.740802 9.07698 0.740802C9.39553 0.740802 9.65481 1.01786 9.65481 1.35814V3.77611C9.65481 4.11639 9.39553 4.39345 9.07698 4.39345C8.75844 4.39345 8.49916 4.11639 8.49916 3.77611V1.35814ZM4.50821 1.35814C4.50821 1.01786 4.76749 0.740802 5.08604 0.740802C5.40458 0.740802 5.66386 1.01786 5.66386 1.35814V3.77611C5.66386 4.11639 5.40458 4.39345 5.08604 4.39345C4.76749 4.39345 4.50821 4.11639 4.50821 3.77611V1.35814ZM15.7926 15.9016C15.7926 16.3781 15.4049 16.7658 14.9283 16.7658H3.0755C2.59892 16.7658 2.21123 16.3781 2.21123 15.9016V5.03646H15.7926V15.9016Z" fill="#0549B1"/>
<path id="Vector_2" d="M5.59354 7.22363H3.32422V9.24306H5.59354V7.22363Z" fill="#0549B1"/>
<path id="Vector_3" d="M8.62138 7.22363H6.35156V9.24306H8.62138V7.22363Z" fill="#0549B1"/>
<path id="Vector_4" d="M11.6521 7.22363H9.38281V9.24306H11.6521V7.22363Z" fill="#0549B1"/>
<path id="Vector_5" d="M14.68 7.22363H12.4102V9.24306H14.68V7.22363Z" fill="#0549B1"/>
<path id="Vector_6" d="M5.59354 9.91895H3.32422V11.9369H5.59354V9.91895Z" fill="#0549B1"/>
<path id="Vector_7" d="M8.62138 9.91895H6.35156V11.9369H8.62138V9.91895Z" fill="#0549B1"/>
<path id="Vector_8" d="M11.6521 9.91895H9.38281V11.9369H11.6521V9.91895Z" fill="#0549B1"/>
<path id="Vector_9" d="M14.68 9.91895H12.4102V11.9369H14.68V9.91895Z" fill="#0549B1"/>
<path id="Vector_10" d="M5.59354 12.6133H3.32422V14.6312H5.59354V12.6133Z" fill="#0549B1"/>
<path id="Vector_11" d="M8.62138 12.6133H6.35156V14.6312H8.62138V12.6133Z" fill="#0549B1"/>
<path id="Vector_12" d="M11.6521 12.6133H9.38281V14.6312H11.6521V12.6133Z" fill="#0549B1"/>
<path id="Vector_13" d="M14.68 12.6133H12.4102V14.6312H14.68V12.6133Z" fill="#0549B1"/>
</g>
</g>
</g>
<defs>
<clipPath id="clip0_1_2649">
<rect width="18" height="18" fill="white"/>
</clipPath>
</defs>
</svg>
