<?xml version="1.0" standalone="no"?>
<!DOCTYPE svg PUBLIC "-//W3C//DTD SVG 1.1//EN"
 "http://www.w3.org/Graphics/SVG/1.1/DTD/svg11.dtd">
<!-- Created with svg_stack (http://github.com/astraw/svg_stack) -->
<svg xmlns:sodipodi="http://sodipodi.sourceforge.net/DTD/sodipodi-0.dtd" xmlns="http://www.w3.org/2000/svg" version="1.1" width="1357.0" height="481.0">
  <defs/>
  <g id="id0:id0" transform="matrix(1.25,0,0,1.25,0.0,0.0)"><g transform="translate(0.000000,384.800000) scale(0.040000,-0.040000)" fill="#fefefe" stroke="none">
<path d="M678 8923 c7 -3 16 -2 19 1 4 3 -2 6 -13 5 -11 0 -14 -3 -6 -6z"/>
<path d="M6508 8923 c7 -3 16 -2 19 1 4 3 -2 6 -13 5 -11 0 -14 -3 -6 -6z"/>
<path d="M7278 8923 c7 -3 16 -2 19 1 4 3 -2 6 -13 5 -11 0 -14 -3 -6 -6z"/>
<path d="M19708 8923 c7 -3 16 -2 19 1 4 3 -2 6 -13 5 -11 0 -14 -3 -6 -6z"/>
<path d="M20478 8923 c7 -3 16 -2 19 1 4 3 -2 6 -13 5 -11 0 -14 -3 -6 -6z"/>
<path d="M26308 8923 c7 -3 16 -2 19 1 4 3 -2 6 -13 5 -11 0 -14 -3 -6 -6z"/>
<path d="M624 8888 l-19 -23 23 19 c21 18 27 26 19 26 -2 0 -12 -10 -23 -22z"/>
<path d="M6565 8890 c10 -11 20 -20 23 -20 3 0 -3 9 -13 20 -10 11 -20 20 -23 20 -3 0 3 -9 13 -20z"/>
<path d="M7224 8888 l-19 -23 23 19 c21 18 27 26 19 26 -2 0 -12 -10 -23 -22z"/>
<path d="M19765 8890 c10 -11 20 -20 23 -20 3 0 -3 9 -13 20 -10 11 -20 20 -23 20 -3 0 3 -9 13 -20z"/>
<path d="M20424 8888 l-19 -23 23 19 c21 18 27 26 19 26 -2 0 -12 -10 -23 -22z"/>
<path d="M26365 8890 c10 -11 20 -20 23 -20 3 0 -3 9 -13 20 -10 11 -20 20 -23 20 -3 0 3 -9 13 -20z"/>
<path d="M591 8834 c0 -11 3 -14 6 -6 3 7 2 16 -1 19 -3 4 -6 -2 -5 -13z"/>
<path d="M6601 8834 c0 -11 3 -14 6 -6 3 7 2 16 -1 19 -3 4 -6 -2 -5 -13z"/>
<path d="M7191 8834 c0 -11 3 -14 6 -6 3 7 2 16 -1 19 -3 4 -6 -2 -5 -13z"/>
<path d="M19801 8834 c0 -11 3 -14 6 -6 3 7 2 16 -1 19 -3 4 -6 -2 -5 -13z"/>
<path d="M20391 8834 c0 -11 3 -14 6 -6 3 7 2 16 -1 19 -3 4 -6 -2 -5 -13z"/>
<path d="M26401 8834 c0 -11 3 -14 6 -6 3 7 2 16 -1 19 -3 4 -6 -2 -5 -13z"/>
<path d="M591 5004 c0 -11 3 -14 6 -6 3 7 2 16 -1 19 -3 4 -6 -2 -5 -13z"/>
<path d="M6601 5004 c0 -11 3 -14 6 -6 3 7 2 16 -1 19 -3 4 -6 -2 -5 -13z"/>
<path d="M625 4950 c10 -11 20 -20 23 -20 3 0 -3 9 -13 20 -10 11 -20 20 -23 20 -3 0 3 -9 13 -20z"/>
<path d="M6564 4948 l-19 -23 23 19 c12 11 22 21 22 23 0 8 -8 2 -26 -19z"/>
<path d="M678 4913 c7 -3 16 -2 19 1 4 3 -2 6 -13 5 -11 0 -14 -3 -6 -6z"/>
<path d="M6508 4913 c7 -3 16 -2 19 1 4 3 -2 6 -13 5 -11 0 -14 -3 -6 -6z"/>
<path d="M678 4723 c7 -3 16 -2 19 1 4 3 -2 6 -13 5 -11 0 -14 -3 -6 -6z"/>
<path d="M6508 4723 c7 -3 16 -2 19 1 4 3 -2 6 -13 5 -11 0 -14 -3 -6 -6z"/>
<path d="M624 4688 l-19 -23 23 19 c21 18 27 26 19 26 -2 0 -12 -10 -23 -22z"/>
<path d="M6565 4690 c10 -11 20 -20 23 -20 3 0 -3 9 -13 20 -10 11 -20 20 -23 20 -3 0 3 -9 13 -20z"/>
<path d="M591 4634 c0 -11 3 -14 6 -6 3 7 2 16 -1 19 -3 4 -6 -2 -5 -13z"/>
<path d="M6601 4634 c0 -11 3 -14 6 -6 3 7 2 16 -1 19 -3 4 -6 -2 -5 -13z"/>
<path d="M591 804 c0 -11 3 -14 6 -6 3 7 2 16 -1 19 -3 4 -6 -2 -5 -13z"/>
<path d="M6601 804 c0 -11 3 -14 6 -6 3 7 2 16 -1 19 -3 4 -6 -2 -5 -13z"/>
<path d="M7191 804 c0 -11 3 -14 6 -6 3 7 2 16 -1 19 -3 4 -6 -2 -5 -13z"/>
<path d="M19801 804 c0 -11 3 -14 6 -6 3 7 2 16 -1 19 -3 4 -6 -2 -5 -13z"/>
<path d="M20391 804 c0 -11 3 -14 6 -6 3 7 2 16 -1 19 -3 4 -6 -2 -5 -13z"/>
<path d="M26401 804 c0 -11 3 -14 6 -6 3 7 2 16 -1 19 -3 4 -6 -2 -5 -13z"/>
<path d="M625 750 c10 -11 20 -20 23 -20 3 0 -3 9 -13 20 -10 11 -20 20 -23 20 -3 0 3 -9 13 -20z"/>
<path d="M6564 748 l-19 -23 23 19 c12 11 22 21 22 23 0 8 -8 2 -26 -19z"/>
<path d="M7225 750 c10 -11 20 -20 23 -20 3 0 -3 9 -13 20 -10 11 -20 20 -23 20 -3 0 3 -9 13 -20z"/>
<path d="M19764 748 l-19 -23 23 19 c21 18 27 26 19 26 -2 0 -12 -10 -23 -22z"/>
<path d="M20425 750 c10 -11 20 -20 23 -20 3 0 -3 9 -13 20 -10 11 -20 20 -23 20 -3 0 3 -9 13 -20z"/>
<path d="M26364 748 l-19 -23 23 19 c12 11 22 21 22 23 0 8 -8 2 -26 -19z"/>
<path d="M678 713 c7 -3 16 -2 19 1 4 3 -2 6 -13 5 -11 0 -14 -3 -6 -6z"/>
<path d="M6508 713 c7 -3 16 -2 19 1 4 3 -2 6 -13 5 -11 0 -14 -3 -6 -6z"/>
<path d="M7278 713 c7 -3 16 -2 19 1 4 3 -2 6 -13 5 -11 0 -14 -3 -6 -6z"/>
<path d="M19708 713 c7 -3 16 -2 19 1 4 3 -2 6 -13 5 -11 0 -14 -3 -6 -6z"/>
<path d="M20478 713 c7 -3 16 -2 19 1 4 3 -2 6 -13 5 -11 0 -14 -3 -6 -6z"/>
<path d="M26308 713 c7 -3 16 -2 19 1 4 3 -2 6 -13 5 -11 0 -14 -3 -6 -6z"/>
</g>
</g>
  <g id="id1:id1" transform="matrix(1.25,0,0,1.25,0.0,0.0)"><g transform="translate(0.000000,384.800000) scale(0.040000,-0.040000)" fill="#ffffff" stroke="none">
<path d="M0 4810 l0 -4810 13570 0 13570 0 0 4810 0 4810 -13570 0 -13570 0 0 -4810z m6570 4080 l40 -40 0 -1930 0 -1930 -40 -40 -40 -40 -2930 0 -2930 0 -40 40 -40 40 0 1930 0 1930 40 40 40 40 2930 0 2930 0 40 -40z m13200 0 l40 -40 0 -4030 0 -4030 -40 -40 -40 -40 -6230 0 -6230 0 -40 40 -40 40 0 4030 0 4030 40 40 40 40 6230 0 6230 0 40 -40z m6600 0 l40 -40 0 -4030 0 -4030 -40 -40 -40 -40 -2930 0 -2930 0 -40 40 -40 40 0 4030 0 4030 40 40 40 40 2930 0 2930 0 40 -40z m-19800 -4200 l40 -40 0 -1930 0 -1930 -40 -40 -40 -40 -2930 0 -2930 0 -40 40 -40 40 0 1930 0 1930 40 40 40 40 2930 0 2930 0 40 -40z"/>
</g>
</g>
  <g id="id2:id2" transform="matrix(1.25,0,0,1.25,0.0,0.0)"><g transform="translate(0.000000,384.800000) scale(0.040000,-0.040000)" fill="#fcfcfc" stroke="none">
<path d="M629 8883 c-13 -16 -12 -17 4 -4 16 13 21 21 13 21 -2 0 -10 -8 -17 -17z"/>
<path d="M6550 8896 c0 -2 8 -10 18 -17 15 -13 16 -12 3 4 -13 16 -21 21 -21 13z"/>
<path d="M7229 8883 c-13 -16 -12 -17 4 -4 16 13 21 21 13 21 -2 0 -10 -8 -17 -17z"/>
<path d="M19750 8896 c0 -2 8 -10 18 -17 15 -13 16 -12 3 4 -13 16 -21 21 -21 13z"/>
<path d="M20429 8883 c-13 -16 -12 -17 4 -4 9 7 17 15 17 17 0 8 -8 3 -21 -13z"/>
<path d="M26350 8896 c0 -2 8 -10 18 -17 15 -13 16 -12 3 4 -13 16 -21 21 -21 13z"/>
<path d="M620 4966 c0 -2 8 -10 18 -17 15 -13 16 -12 3 4 -13 16 -21 21 -21 13z"/>
<path d="M6559 4953 c-13 -16 -12 -17 4 -4 9 7 17 15 17 17 0 8 -8 3 -21 -13z"/>
<path d="M629 4683 c-13 -16 -12 -17 4 -4 9 7 17 15 17 17 0 8 -8 3 -21 -13z"/>
<path d="M6550 4696 c0 -2 8 -10 18 -17 15 -13 16 -12 3 4 -13 16 -21 21 -21 13z"/>
<path d="M620 766 c0 -2 8 -10 18 -17 15 -13 16 -12 3 4 -13 16 -21 21 -21 13z"/>
<path d="M6559 753 c-13 -16 -12 -17 4 -4 9 7 17 15 17 17 0 8 -8 3 -21 -13z"/>
<path d="M7220 766 c0 -2 8 -10 18 -17 15 -13 16 -12 3 4 -13 16 -21 21 -21 13z"/>
<path d="M19759 753 c-13 -16 -12 -17 4 -4 16 13 21 21 13 21 -2 0 -10 -8 -17 -17z"/>
<path d="M20420 766 c0 -2 8 -10 18 -17 15 -13 16 -12 3 4 -13 16 -21 21 -21 13z"/>
<path d="M26359 753 c-13 -16 -12 -17 4 -4 16 13 21 21 13 21 -2 0 -10 -8 -17 -17z"/>
</g>
</g>
  <g id="id3:id3" transform="matrix(1.25,0,0,1.25,0.0,0.0)"><g transform="translate(0.000000,384.800000) scale(0.040000,-0.040000)" fill="#fdfdfd" stroke="none">
<path d="M2148 8923 c798 -2 2106 -2 2905 0 798 1 145 2 -1453 2 -1598 0 -2251 -1 -1452 -2z"/>
<path d="M10397 8923 c1707 -2 4499 -2 6205 0 1707 1 311 2 -3102 2 -3413 0 -4809 -1 -3103 -2z"/>
<path d="M21948 8923 c798 -2 2106 -2 2905 0 798 1 145 2 -1453 2 -1598 0 -2251 -1 -1452 -2z"/>
<path d="M595 6920 c0 -1048 1 -1476 2 -953 2 524 2 1382 0 1905 -1 524 -2 96 -2 -952z"/>
<path d="M6605 6920 c0 -1048 1 -1476 2 -953 2 524 2 1382 0 1905 -1 524 -2 96 -2 -952z"/>
<path d="M7195 4820 c0 -2203 1 -3104 2 -2003 2 1102 2 2904 0 4005 -1 1102 -2 201 -2 -2002z"/>
<path d="M19805 4820 c0 -2203 1 -3104 2 -2003 2 1102 2 2904 0 4005 -1 1102 -2 201 -2 -2002z"/>
<path d="M20395 4820 c0 -2203 1 -3104 2 -2003 2 1102 2 2904 0 4005 -1 1102 -2 201 -2 -2002z"/>
<path d="M26405 4820 c0 -2203 1 -3104 2 -2003 2 1102 2 2904 0 4005 -1 1102 -2 201 -2 -2002z"/>
<path d="M2148 4913 c798 -2 2106 -2 2905 0 798 1 145 2 -1453 2 -1598 0 -2251 -1 -1452 -2z"/>
<path d="M2148 4723 c798 -2 2106 -2 2905 0 798 1 145 2 -1453 2 -1598 0 -2251 -1 -1452 -2z"/>
<path d="M595 2720 c0 -1048 1 -1476 2 -953 2 524 2 1382 0 1905 -1 524 -2 96 -2 -952z"/>
<path d="M6605 2720 c0 -1048 1 -1476 2 -953 2 524 2 1382 0 1905 -1 524 -2 96 -2 -952z"/>
<path d="M2148 713 c798 -2 2106 -2 2905 0 798 1 145 2 -1453 2 -1598 0 -2251 -1 -1452 -2z"/>
<path d="M10397 713 c1707 -2 4499 -2 6205 0 1707 1 311 2 -3102 2 -3413 0 -4809 -1 -3103 -2z"/>
<path d="M21948 713 c798 -2 2106 -2 2905 0 798 1 145 2 -1453 2 -1598 0 -2251 -1 -1452 -2z"/>
</g>
</g>
  <g id="id4:id4" transform="matrix(1.25,0,0,1.25,0.0,0.0)"><g transform="translate(0.000000,384.800000) scale(0.040000,-0.040000)" fill="#fafafa" stroke="none">
</g>
</g>
  <g id="id5:id5" transform="matrix(1.25,0,0,1.25,0.0,0.0)"><g transform="translate(0.000000,384.800000) scale(0.040000,-0.040000)" fill="#fbfbfb" stroke="none">
</g>
</g>
  <g id="id6:id6" transform="matrix(1.25,0,0,1.25,0.0,0.0)"><g transform="translate(0.000000,384.800000) scale(0.040000,-0.040000)" fill="#f8f8f8" stroke="none">
</g>
</g>
  <g id="id7:id7" transform="matrix(1.25,0,0,1.25,0.0,0.0)"><g transform="translate(0.000000,384.800000) scale(0.040000,-0.040000)" fill="#f9f9f9" stroke="none">
<path d="M2148 8913 c798 -2 2106 -2 2905 0 798 1 145 2 -1453 2 -1598 0 -2251 -1 -1452 -2z"/>
<path d="M10397 8913 c1707 -2 4499 -2 6205 0 1707 1 311 2 -3102 2 -3413 0 -4809 -1 -3103 -2z"/>
<path d="M21948 8913 c798 -2 2106 -2 2905 0 798 1 145 2 -1453 2 -1598 0 -2251 -1 -1452 -2z"/>
<path d="M634 8878 l-19 -23 23 19 c21 18 27 26 19 26 -2 0 -12 -10 -23 -22z"/>
<path d="M6555 8880 c10 -11 20 -20 23 -20 3 0 -3 9 -13 20 -10 11 -20 20 -23 20 -3 0 3 -9 13 -20z"/>
<path d="M7234 8878 l-19 -23 23 19 c12 11 22 21 22 23 0 8 -8 2 -26 -19z"/>
<path d="M19755 8880 c10 -11 20 -20 23 -20 3 0 -3 9 -13 20 -10 11 -20 20 -23 20 -3 0 3 -9 13 -20z"/>
<path d="M20434 8878 l-19 -23 23 19 c21 18 27 26 19 26 -2 0 -12 -10 -23 -22z"/>
<path d="M26355 8880 c10 -11 20 -20 23 -20 3 0 -3 9 -13 20 -10 11 -20 20 -23 20 -3 0 3 -9 13 -20z"/>
<path d="M605 6920 c0 -1048 1 -1476 2 -953 2 524 2 1382 0 1905 -1 524 -2 96 -2 -952z"/>
<path d="M6595 6920 c0 -1048 1 -1476 2 -953 2 524 2 1382 0 1905 -1 524 -2 96 -2 -952z"/>
<path d="M7205 4820 c0 -2203 1 -3104 2 -2003 2 1102 2 2904 0 4005 -1 1102 -2 201 -2 -2002z"/>
<path d="M19795 4820 c0 -2203 1 -3104 2 -2003 2 1102 2 2904 0 4005 -1 1102 -2 201 -2 -2002z"/>
<path d="M20405 4820 c0 -2203 1 -3104 2 -2003 2 1102 2 2904 0 4005 -1 1102 -2 201 -2 -2002z"/>
<path d="M26395 4820 c0 -2203 1 -3104 2 -2003 2 1102 2 2904 0 4005 -1 1102 -2 201 -2 -2002z"/>
<path d="M635 4960 c10 -11 20 -20 23 -20 3 0 -3 9 -13 20 -10 11 -20 20 -23 20 -3 0 3 -9 13 -20z"/>
<path d="M6554 4958 l-19 -23 23 19 c12 11 22 21 22 23 0 8 -8 2 -26 -19z"/>
<path d="M2148 4923 c798 -2 2106 -2 2905 0 798 1 145 2 -1453 2 -1598 0 -2251 -1 -1452 -2z"/>
<path d="M2148 4713 c798 -2 2106 -2 2905 0 798 1 145 2 -1453 2 -1598 0 -2251 -1 -1452 -2z"/>
<path d="M634 4678 l-19 -23 23 19 c12 11 22 21 22 23 0 8 -8 2 -26 -19z"/>
<path d="M6555 4680 c10 -11 20 -20 23 -20 3 0 -3 9 -13 20 -10 11 -20 20 -23 20 -3 0 3 -9 13 -20z"/>
<path d="M605 2720 c0 -1048 1 -1476 2 -953 2 524 2 1382 0 1905 -1 524 -2 96 -2 -952z"/>
<path d="M6595 2720 c0 -1048 1 -1476 2 -953 2 524 2 1382 0 1905 -1 524 -2 96 -2 -952z"/>
<path d="M635 760 c10 -11 20 -20 23 -20 3 0 -3 9 -13 20 -10 11 -20 20 -23 20 -3 0 3 -9 13 -20z"/>
<path d="M6554 758 l-19 -23 23 19 c12 11 22 21 22 23 0 8 -8 2 -26 -19z"/>
<path d="M7235 760 c10 -11 20 -20 23 -20 3 0 -3 9 -13 20 -10 11 -20 20 -23 20 -3 0 3 -9 13 -20z"/>
<path d="M19754 758 l-19 -23 23 19 c21 18 27 26 19 26 -2 0 -12 -10 -23 -22z"/>
<path d="M20435 760 c10 -11 20 -20 23 -20 3 0 -3 9 -13 20 -10 11 -20 20 -23 20 -3 0 3 -9 13 -20z"/>
<path d="M26354 758 l-19 -23 23 19 c12 11 22 21 22 23 0 8 -8 2 -26 -19z"/>
<path d="M2148 723 c798 -2 2106 -2 2905 0 798 1 145 2 -1453 2 -1598 0 -2251 -1 -1452 -2z"/>
<path d="M10397 723 c1707 -2 4499 -2 6205 0 1707 1 311 2 -3102 2 -3413 0 -4809 -1 -3103 -2z"/>
<path d="M21948 723 c798 -2 2106 -2 2905 0 798 1 145 2 -1453 2 -1598 0 -2251 -1 -1452 -2z"/>
</g>
</g>
  <g id="id8:id8" transform="matrix(1.25,0,0,1.25,0.0,0.0)"><g transform="translate(0.000000,384.800000) scale(0.040000,-0.040000)" fill="#f7f7f7" stroke="none">
<path d="M645 8875 l-25 -24 0 -1931 0 -1931 25 -24 24 -25 2931 0 2931 0 24 25 25 24 0 1931 0 1931 -25 24 -24 25 -2931 0 -2931 0 -24 -25z"/>
<path d="M7245 8875 l-25 -24 0 -4031 0 -4031 25 -24 24 -25 6231 0 6231 0 24 25 25 24 0 4031 0 4031 -25 24 -24 25 -6231 0 -6231 0 -24 -25z"/>
<path d="M20445 8875 l-25 -24 0 -4031 0 -4031 25 -24 24 -25 2931 0 2931 0 24 25 25 24 0 4031 0 4031 -25 24 -24 25 -2931 0 -2931 0 -24 -25z"/>
<path d="M645 4675 l-25 -24 0 -1931 0 -1931 25 -24 24 -25 2931 0 2931 0 24 25 25 24 0 1931 0 1931 -25 24 -24 25 -2931 0 -2931 0 -24 -25z"/>
</g>
</g>
  <g id="id9:id9" transform="matrix(1.25,0,0,1.25,0.0,0.0)"><g transform="translate(0.000000,384.800000) scale(0.040000,-0.040000)" fill="#f6f6f6" stroke="none">
<path d="M702 8905 c2 -3 1307 -5 2898 -5 1591 0 2896 2 2898 5 3 3 -1301 5 -2898 5 -1597 0 -2901 -2 -2898 -5z"/>
<path d="M7302 8905 c6 -7 12390 -7 12396 0 3 3 -2786 5 -6198 5 -3412 0 -6201 -2 -6198 -5z"/>
<path d="M20502 8905 c6 -7 5790 -7 5796 0 3 3 -1301 5 -2898 5 -1597 0 -2901 -2 -2898 -5z"/>
<path d="M610 6920 c0 -1047 2 -1901 5 -1898 3 3 5 857 5 1898 0 1041 -2 1895 -5 1898 -3 3 -5 -851 -5 -1898z"/>
<path d="M6580 8815 c-3 -375 1 -3790 5 -3793 3 -3 5 850 5 1896 0 1046 -2 1902 -5 1902 -3 0 -5 -2 -5 -5z"/>
<path d="M7210 4820 c0 -2202 2 -4001 5 -3998 3 2 5 1802 5 3998 0 2196 -2 3996 -5 3998 -3 3 -5 -1796 -5 -3998z"/>
<path d="M19780 8815 c-3 -777 2 -7990 5 -7993 3 -3 5 1795 5 3996 0 2201 -2 4002 -5 4002 -3 0 -5 -2 -5 -5z"/>
<path d="M20410 4820 c0 -2202 2 -4001 5 -3998 3 2 5 1802 5 3998 0 2196 -2 3996 -5 3998 -3 3 -5 -1796 -5 -3998z"/>
<path d="M26380 8815 c-3 -777 2 -7990 5 -7993 3 -3 5 1795 5 3996 0 2201 -2 4002 -5 4002 -3 0 -5 -2 -5 -5z"/>
<path d="M703 4938 c-2 -5 1302 -8 2898 -8 1596 0 2900 2 2897 5 -8 8 -5789 11 -5795 3z"/>
<path d="M702 4705 c6 -7 5790 -7 5796 0 3 3 -1301 5 -2898 5 -1597 0 -2901 -2 -2898 -5z"/>
<path d="M610 2720 c0 -1047 2 -1901 5 -1898 7 6 7 3790 0 3796 -3 3 -5 -851 -5 -1898z"/>
<path d="M6580 4615 c-3 -375 1 -3790 5 -3793 3 -3 5 850 5 1896 0 1046 -2 1902 -5 1902 -3 0 -5 -2 -5 -5z"/>
<path d="M703 738 c-2 -5 1302 -8 2898 -8 1596 0 2900 2 2897 5 -8 8 -5789 11 -5795 3z"/>
<path d="M7303 738 c-2 -5 2787 -8 6198 -8 3411 0 6200 2 6197 5 -8 8 -12389 11 -12395 3z"/>
<path d="M20503 738 c-2 -5 1302 -8 2898 -8 1596 0 2900 2 2897 5 -8 8 -5789 11 -5795 3z"/>
</g>
</g>
</svg>
